<svg height="7246" width="720" xmlns="http://www.w3.org/2000/svg">
<rect height="7246" fill="#555" width="720"></rect>
<text fill="#7f7" font-family="Courier New" font-size="12" xml:space="preserve">
<tspan x="10" y="26">57 megabytes installed</tspan>
<tspan x="10" y="42"></tspan>
<tspan x="10" y="58">node_modules</tspan>
<tspan x="10" y="74">└─┬ generator-chrome-extension@0.6.1 </tspan>
<tspan x="10" y="90">  ├─┬ chrome-manifest@0.2.9 </tspan>
<tspan x="10" y="106">  │ ├── lodash@4.17.4 </tspan>
<tspan x="10" y="122">  │ ├─┬ maniver@0.3.1 </tspan>
<tspan x="10" y="138">  │ │ ├── is-maniver@0.1.1 </tspan>
<tspan x="10" y="154">  │ │ └─┬ meow@3.7.0 </tspan>
<tspan x="10" y="170">  │ │   ├─┬ camelcase-keys@2.1.0 </tspan>
<tspan x="10" y="186">  │ │   │ └── camelcase@2.1.1 </tspan>
<tspan x="10" y="202">  │ │   ├── decamelize@1.2.0 </tspan>
<tspan x="10" y="218">  │ │   ├─┬ loud-rejection@1.6.0 </tspan>
<tspan x="10" y="234">  │ │   │ ├─┬ currently-unhandled@0.4.1 </tspan>
<tspan x="10" y="250">  │ │   │ │ └── array-find-index@1.0.2 </tspan>
<tspan x="10" y="266">  │ │   │ └── signal-exit@3.0.2 </tspan>
<tspan x="10" y="282">  │ │   ├── map-obj@1.0.1 </tspan>
<tspan x="10" y="298">  │ │   ├── minimist@1.2.0 </tspan>
<tspan x="10" y="314">  │ │   ├─┬ normalize-package-data@2.3.6 </tspan>
<tspan x="10" y="330">  │ │   │ ├── hosted-git-info@2.4.2 </tspan>
<tspan x="10" y="346">  │ │   │ ├─┬ is-builtin-module@1.0.0 </tspan>
<tspan x="10" y="362">  │ │   │ │ └── builtin-modules@1.1.1 </tspan>
<tspan x="10" y="378">  │ │   │ ├── semver@5.3.0 </tspan>
<tspan x="10" y="394">  │ │   │ └─┬ validate-npm-package-license@3.0.1 </tspan>
<tspan x="10" y="410">  │ │   │   ├─┬ spdx-correct@1.0.2 </tspan>
<tspan x="10" y="426">  │ │   │   │ └── spdx-license-ids@1.2.2 </tspan>
<tspan x="10" y="442">  │ │   │   └── spdx-expression-parse@1.0.4 </tspan>
<tspan x="10" y="458">  │ │   ├── object-assign@4.1.1 </tspan>
<tspan x="10" y="474">  │ │   ├─┬ redent@1.0.0 </tspan>
<tspan x="10" y="490">  │ │   │ ├── indent-string@2.1.0 </tspan>
<tspan x="10" y="506">  │ │   │ └── strip-indent@1.0.1 </tspan>
<tspan x="10" y="522">  │ │   └── trim-newlines@1.0.0 </tspan>
<tspan x="10" y="538">  │ ├── picker@0.1.4 </tspan>
<tspan x="10" y="554">  │ └─┬ sort-json@1.4.1 </tspan>
<tspan x="10" y="570">  │   └─┬ detect-indent@4.0.0 </tspan>
<tspan x="10" y="586">  │     └─┬ repeating@2.0.1 </tspan>
<tspan x="10" y="602">  │       └── is-finite@1.0.2 </tspan>
<tspan x="10" y="618">  ├─┬ generator-jasmine@0.2.2 </tspan>
<tspan x="10" y="634">  │ └─┬ yeoman-generator@0.20.3 </tspan>
<tspan x="10" y="650">  │   ├── async@1.5.2 </tspan>
<tspan x="10" y="666">  │   ├─┬ cross-spawn@2.2.3 </tspan>
<tspan x="10" y="682">  │   │ ├── cross-spawn-async@2.2.5 </tspan>
<tspan x="10" y="698">  │   │ └─┬ spawn-sync@1.0.15 </tspan>
<tspan x="10" y="714">  │   │   └── os-shim@0.1.3 </tspan>
<tspan x="10" y="730">  │   ├── diff@2.2.3 </tspan>
<tspan x="10" y="746">  │   ├─┬ download@4.4.3 </tspan>
<tspan x="10" y="762">  │   │ ├─┬ caw@1.2.0 </tspan>
<tspan x="10" y="778">  │   │ │ ├─┬ get-proxy@1.1.0 </tspan>
<tspan x="10" y="794">  │   │ │ │ └─┬ rc@1.2.1 </tspan>
<tspan x="10" y="810">  │   │ │ │   ├── ini@1.3.4 </tspan>
<tspan x="10" y="826">  │   │ │ │   └── strip-json-comments@2.0.1 </tspan>
<tspan x="10" y="842">  │   │ │ ├── is-obj@1.0.1 </tspan>
<tspan x="10" y="858">  │   │ │ ├── object-assign@3.0.0 </tspan>
<tspan x="10" y="874">  │   │ │ └── tunnel-agent@0.4.3 </tspan>
<tspan x="10" y="890">  │   │ ├─┬ concat-stream@1.6.0 </tspan>
<tspan x="10" y="906">  │   │ │ └── typedarray@0.0.6 </tspan>
<tspan x="10" y="922">  │   │ ├─┬ each-async@1.1.1 </tspan>
<tspan x="10" y="938">  │   │ │ ├── onetime@1.1.0 </tspan>
<tspan x="10" y="954">  │   │ │ └── set-immediate-shim@1.0.1 </tspan>
<tspan x="10" y="970">  │   │ ├─┬ filenamify@1.2.1 </tspan>
<tspan x="10" y="986">  │   │ │ ├── filename-reserved-regex@1.0.0 </tspan>
<tspan x="10" y="1002">  │   │ │ ├── strip-outer@1.0.0 </tspan>
<tspan x="10" y="1018">  │   │ │ └── trim-repeated@1.0.0 </tspan>
<tspan x="10" y="1034">  │   │ ├─┬ got@5.7.1 </tspan>
<tspan x="10" y="1050">  │   │ │ ├─┬ create-error-class@3.0.2 </tspan>
<tspan x="10" y="1066">  │   │ │ │ └── capture-stack-trace@1.0.0 </tspan>
<tspan x="10" y="1082">  │   │ │ ├── duplexer2@0.1.4 </tspan>
<tspan x="10" y="1098">  │   │ │ ├── is-redirect@1.0.0 </tspan>
<tspan x="10" y="1114">  │   │ │ ├── is-retry-allowed@1.1.0 </tspan>
<tspan x="10" y="1130">  │   │ │ ├── is-stream@1.1.0 </tspan>
<tspan x="10" y="1146">  │   │ │ ├── lowercase-keys@1.0.0 </tspan>
<tspan x="10" y="1162">  │   │ │ ├── node-status-codes@1.0.0 </tspan>
<tspan x="10" y="1178">  │   │ │ ├─┬ parse-json@2.2.0 </tspan>
<tspan x="10" y="1194">  │   │ │ │ └─┬ error-ex@1.3.1 </tspan>
<tspan x="10" y="1210">  │   │ │ │   └── is-arrayish@0.2.1 </tspan>
<tspan x="10" y="1226">  │   │ │ ├── timed-out@3.1.3 </tspan>
<tspan x="10" y="1242">  │   │ │ ├── unzip-response@1.0.2 </tspan>
<tspan x="10" y="1258">  │   │ │ └─┬ url-parse-lax@1.0.0 </tspan>
<tspan x="10" y="1274">  │   │ │   └── prepend-http@1.0.4 </tspan>
<tspan x="10" y="1290">  │   │ ├─┬ gulp-decompress@1.2.0 </tspan>
<tspan x="10" y="1306">  │   │ │ ├─┬ archive-type@3.2.0 </tspan>
<tspan x="10" y="1322">  │   │ │ │ └── file-type@3.9.0 </tspan>
<tspan x="10" y="1338">  │   │ │ ├─┬ decompress@3.0.0 </tspan>
<tspan x="10" y="1354">  │   │ │ │ ├─┬ buffer-to-vinyl@1.1.0 </tspan>
<tspan x="10" y="1370">  │   │ │ │ │ └── uuid@2.0.3 </tspan>
<tspan x="10" y="1386">  │   │ │ │ ├─┬ decompress-tar@3.1.0 </tspan>
<tspan x="10" y="1402">  │   │ │ │ │ ├── is-tar@1.0.0 </tspan>
<tspan x="10" y="1418">  │   │ │ │ │ ├── object-assign@2.1.1 </tspan>
<tspan x="10" y="1434">  │   │ │ │ │ ├─┬ strip-dirs@1.1.1 </tspan>
<tspan x="10" y="1450">  │   │ │ │ │ │ ├─┬ is-absolute@0.1.7 </tspan>
<tspan x="10" y="1466">  │   │ │ │ │ │ │ └── is-relative@0.1.3 </tspan>
<tspan x="10" y="1482">  │   │ │ │ │ │ ├── is-natural-number@2.1.1 </tspan>
<tspan x="10" y="1498">  │   │ │ │ │ │ └── sum-up@1.0.3 </tspan>
<tspan x="10" y="1514">  │   │ │ │ │ ├─┬ tar-stream@1.5.2 </tspan>
<tspan x="10" y="1530">  │   │ │ │ │ │ ├── bl@1.2.0 </tspan>
<tspan x="10" y="1546">  │   │ │ │ │ │ └── end-of-stream@1.4.0 </tspan>
<tspan x="10" y="1562">  │   │ │ │ │ ├─┬ through2@0.6.5 </tspan>
<tspan x="10" y="1578">  │   │ │ │ │ │ └─┬ readable-stream@1.0.34 </tspan>
<tspan x="10" y="1594">  │   │ │ │ │ │   ├── isarray@0.0.1 </tspan>
<tspan x="10" y="1610">  │   │ │ │ │ │   └── string_decoder@0.10.31 </tspan>
<tspan x="10" y="1626">  │   │ │ │ │ └─┬ vinyl@0.4.6 </tspan>
<tspan x="10" y="1642">  │   │ │ │ │   └── clone@0.2.0 </tspan>
<tspan x="10" y="1658">  │   │ │ │ ├─┬ decompress-tarbz2@3.1.0 </tspan>
<tspan x="10" y="1674">  │   │ │ │ │ ├── is-bzip2@1.0.0 </tspan>
<tspan x="10" y="1690">  │   │ │ │ │ ├── object-assign@2.1.1 </tspan>
<tspan x="10" y="1706">  │   │ │ │ │ ├─┬ seek-bzip@1.0.5 </tspan>
<tspan x="10" y="1722">  │   │ │ │ │ │ └─┬ commander@2.8.1 </tspan>
<tspan x="10" y="1738">  │   │ │ │ │ │   └── graceful-readlink@1.0.1 </tspan>
<tspan x="10" y="1754">  │   │ │ │ │ ├─┬ through2@0.6.5 </tspan>
<tspan x="10" y="1770">  │   │ │ │ │ │ └─┬ readable-stream@1.0.34 </tspan>
<tspan x="10" y="1786">  │   │ │ │ │ │   ├── isarray@0.0.1 </tspan>
<tspan x="10" y="1802">  │   │ │ │ │ │   └── string_decoder@0.10.31 </tspan>
<tspan x="10" y="1818">  │   │ │ │ │ └─┬ vinyl@0.4.6 </tspan>
<tspan x="10" y="1834">  │   │ │ │ │   └── clone@0.2.0 </tspan>
<tspan x="10" y="1850">  │   │ │ │ ├─┬ decompress-targz@3.1.0 </tspan>
<tspan x="10" y="1866">  │   │ │ │ │ ├── is-gzip@1.0.0 </tspan>
<tspan x="10" y="1882">  │   │ │ │ │ ├── object-assign@2.1.1 </tspan>
<tspan x="10" y="1898">  │   │ │ │ │ ├─┬ through2@0.6.5 </tspan>
<tspan x="10" y="1914">  │   │ │ │ │ │ └─┬ readable-stream@1.0.34 </tspan>
<tspan x="10" y="1930">  │   │ │ │ │ │   ├── isarray@0.0.1 </tspan>
<tspan x="10" y="1946">  │   │ │ │ │ │   └── string_decoder@0.10.31 </tspan>
<tspan x="10" y="1962">  │   │ │ │ │ └─┬ vinyl@0.4.6 </tspan>
<tspan x="10" y="1978">  │   │ │ │ │   └── clone@0.2.0 </tspan>
<tspan x="10" y="1994">  │   │ │ │ ├─┬ decompress-unzip@3.4.0 </tspan>
<tspan x="10" y="2010">  │   │ │ │ │ ├── is-zip@1.0.0 </tspan>
<tspan x="10" y="2026">  │   │ │ │ │ ├── stat-mode@0.2.2 </tspan>
<tspan x="10" y="2042">  │   │ │ │ │ └─┬ yauzl@2.7.0 </tspan>
<tspan x="10" y="2058">  │   │ │ │ │   ├── buffer-crc32@0.2.13 </tspan>
<tspan x="10" y="2074">  │   │ │ │ │   └─┬ fd-slicer@1.0.1 </tspan>
<tspan x="10" y="2090">  │   │ │ │ │     └── pend@1.2.0 </tspan>
<tspan x="10" y="2106">  │   │ │ │ └── vinyl-assign@1.2.1 </tspan>
<tspan x="10" y="2122">  │   │ │ └─┬ gulp-util@3.0.8 </tspan>
<tspan x="10" y="2138">  │   │ │   ├── beeper@1.1.1 </tspan>
<tspan x="10" y="2154">  │   │ │   ├── dateformat@2.0.0 </tspan>
<tspan x="10" y="2170">  │   │ │   ├─┬ fancy-log@1.3.0 </tspan>
<tspan x="10" y="2186">  │   │ │   │ └── time-stamp@1.0.1 </tspan>
<tspan x="10" y="2202">  │   │ │   ├─┬ gulplog@1.0.0 </tspan>
<tspan x="10" y="2218">  │   │ │   │ └── glogg@1.0.0 </tspan>
<tspan x="10" y="2234">  │   │ │   ├─┬ has-gulplog@0.1.0 </tspan>
<tspan x="10" y="2250">  │   │ │   │ └── sparkles@1.0.0 </tspan>
<tspan x="10" y="2266">  │   │ │   ├── lodash._reescape@3.0.0 </tspan>
<tspan x="10" y="2282">  │   │ │   ├── lodash._reevaluate@3.0.0 </tspan>
<tspan x="10" y="2298">  │   │ │   ├── lodash._reinterpolate@3.0.0 </tspan>
<tspan x="10" y="2314">  │   │ │   ├─┬ lodash.template@3.6.2 </tspan>
<tspan x="10" y="2330">  │   │ │   │ ├── lodash._basecopy@3.0.1 </tspan>
<tspan x="10" y="2346">  │   │ │   │ ├── lodash._basetostring@3.0.1 </tspan>
<tspan x="10" y="2362">  │   │ │   │ ├── lodash._basevalues@3.0.0 </tspan>
<tspan x="10" y="2378">  │   │ │   │ ├── lodash._isiterateecall@3.0.9 </tspan>
<tspan x="10" y="2394">  │   │ │   │ ├─┬ lodash.escape@3.2.0 </tspan>
<tspan x="10" y="2410">  │   │ │   │ │ └── lodash._root@3.0.1 </tspan>
<tspan x="10" y="2426">  │   │ │   │ ├─┬ lodash.keys@3.1.2 </tspan>
<tspan x="10" y="2442">  │   │ │   │ │ ├── lodash._getnative@3.9.1 </tspan>
<tspan x="10" y="2458">  │   │ │   │ │ ├── lodash.isarguments@3.1.0 </tspan>
<tspan x="10" y="2474">  │   │ │   │ │ └── lodash.isarray@3.0.4 </tspan>
<tspan x="10" y="2490">  │   │ │   │ ├── lodash.restparam@3.6.1 </tspan>
<tspan x="10" y="2506">  │   │ │   │ └── lodash.templatesettings@3.1.1 </tspan>
<tspan x="10" y="2522">  │   │ │   ├─┬ multipipe@0.1.2 </tspan>
<tspan x="10" y="2538">  │   │ │   │ └─┬ duplexer2@0.0.2 </tspan>
<tspan x="10" y="2554">  │   │ │   │   └─┬ readable-stream@1.1.14 </tspan>
<tspan x="10" y="2570">  │   │ │   │     ├── isarray@0.0.1 </tspan>
<tspan x="10" y="2586">  │   │ │   │     └── string_decoder@0.10.31 </tspan>
<tspan x="10" y="2602">  │   │ │   ├── object-assign@3.0.0 </tspan>
<tspan x="10" y="2618">  │   │ │   └── vinyl@0.5.3 </tspan>
<tspan x="10" y="2634">  │   │ ├── gulp-rename@1.2.2 </tspan>
<tspan x="10" y="2650">  │   │ ├── is-url@1.2.2 </tspan>
<tspan x="10" y="2666">  │   │ ├── read-all-stream@3.1.0 </tspan>
<tspan x="10" y="2682">  │   │ ├── stream-combiner2@1.1.1 </tspan>
<tspan x="10" y="2698">  │   │ ├─┬ vinyl-fs@2.4.4 </tspan>
<tspan x="10" y="2714">  │   │ │ ├─┬ duplexify@3.5.0 </tspan>
<tspan x="10" y="2730">  │   │ │ │ ├─┬ end-of-stream@1.0.0 </tspan>
<tspan x="10" y="2746">  │   │ │ │ │ └── once@1.3.3 </tspan>
<tspan x="10" y="2762">  │   │ │ │ └── stream-shift@1.0.0 </tspan>
<tspan x="10" y="2778">  │   │ │ ├─┬ glob-stream@5.3.5 </tspan>
<tspan x="10" y="2794">  │   │ │ │ ├─┬ glob-parent@3.1.0 </tspan>
<tspan x="10" y="2810">  │   │ │ │ │ ├─┬ is-glob@3.1.0 </tspan>
<tspan x="10" y="2826">  │   │ │ │ │ │ └── is-extglob@2.1.1 </tspan>
<tspan x="10" y="2842">  │   │ │ │ │ └── path-dirname@1.0.2 </tspan>
<tspan x="10" y="2858">  │   │ │ │ ├─┬ micromatch@2.3.11 </tspan>
<tspan x="10" y="2874">  │   │ │ │ │ ├─┬ arr-diff@2.0.0 </tspan>
<tspan x="10" y="2890">  │   │ │ │ │ │ └── arr-flatten@1.0.3 </tspan>
<tspan x="10" y="2906">  │   │ │ │ │ ├── array-unique@0.2.1 </tspan>
<tspan x="10" y="2922">  │   │ │ │ │ ├─┬ braces@1.8.5 </tspan>
<tspan x="10" y="2938">  │   │ │ │ │ │ ├─┬ expand-range@1.8.2 </tspan>
<tspan x="10" y="2954">  │   │ │ │ │ │ │ └─┬ fill-range@2.2.3 </tspan>
<tspan x="10" y="2970">  │   │ │ │ │ │ │   ├── is-number@2.1.0 </tspan>
<tspan x="10" y="2986">  │   │ │ │ │ │ │   ├── isobject@2.1.0 </tspan>
<tspan x="10" y="3002">  │   │ │ │ │ │ │   ├── randomatic@1.1.6 </tspan>
<tspan x="10" y="3018">  │   │ │ │ │ │ │   └── repeat-string@1.6.1 </tspan>
<tspan x="10" y="3034">  │   │ │ │ │ │ ├── preserve@0.2.0 </tspan>
<tspan x="10" y="3050">  │   │ │ │ │ │ └── repeat-element@1.1.2 </tspan>
<tspan x="10" y="3066">  │   │ │ │ │ ├─┬ expand-brackets@0.1.5 </tspan>
<tspan x="10" y="3082">  │   │ │ │ │ │ └── is-posix-bracket@0.1.1 </tspan>
<tspan x="10" y="3098">  │   │ │ │ │ ├─┬ extglob@0.3.2 </tspan>
<tspan x="10" y="3114">  │   │ │ │ │ │ └── is-extglob@1.0.0 </tspan>
<tspan x="10" y="3130">  │   │ │ │ │ ├── filename-regex@2.0.0 </tspan>
<tspan x="10" y="3146">  │   │ │ │ │ ├── is-extglob@1.0.0 </tspan>
<tspan x="10" y="3162">  │   │ │ │ │ ├── is-glob@2.0.1 </tspan>
<tspan x="10" y="3178">  │   │ │ │ │ ├─┬ kind-of@3.1.0 </tspan>
<tspan x="10" y="3194">  │   │ │ │ │ │ └── is-buffer@1.1.5 </tspan>
<tspan x="10" y="3210">  │   │ │ │ │ ├─┬ normalize-path@2.1.1 </tspan>
<tspan x="10" y="3226">  │   │ │ │ │ │ └── remove-trailing-separator@1.0.1 </tspan>
<tspan x="10" y="3242">  │   │ │ │ │ ├─┬ object.omit@2.0.1 </tspan>
<tspan x="10" y="3258">  │   │ │ │ │ │ ├─┬ for-own@0.1.5 </tspan>
<tspan x="10" y="3274">  │   │ │ │ │ │ │ └── for-in@1.0.2 </tspan>
<tspan x="10" y="3290">  │   │ │ │ │ │ └── is-extendable@0.1.1 </tspan>
<tspan x="10" y="3306">  │   │ │ │ │ ├─┬ parse-glob@3.0.4 </tspan>
<tspan x="10" y="3322">  │   │ │ │ │ │ ├─┬ glob-base@0.3.0 </tspan>
<tspan x="10" y="3338">  │   │ │ │ │ │ │ ├── glob-parent@2.0.0 </tspan>
<tspan x="10" y="3354">  │   │ │ │ │ │ │ └─┬ is-glob@2.0.1 </tspan>
<tspan x="10" y="3370">  │   │ │ │ │ │ │   └── is-extglob@1.0.0 </tspan>
<tspan x="10" y="3386">  │   │ │ │ │ │ ├── is-dotfile@1.0.2 </tspan>
<tspan x="10" y="3402">  │   │ │ │ │ │ ├── is-extglob@1.0.0 </tspan>
<tspan x="10" y="3418">  │   │ │ │ │ │ └── is-glob@2.0.1 </tspan>
<tspan x="10" y="3434">  │   │ │ │ │ └─┬ regex-cache@0.4.3 </tspan>
<tspan x="10" y="3450">  │   │ │ │ │   ├── is-equal-shallow@0.1.3 </tspan>
<tspan x="10" y="3466">  │   │ │ │ │   └── is-primitive@2.0.0 </tspan>
<tspan x="10" y="3482">  │   │ │ │ ├── ordered-read-streams@0.3.0 </tspan>
<tspan x="10" y="3498">  │   │ │ │ ├─┬ through2@0.6.5 </tspan>
<tspan x="10" y="3514">  │   │ │ │ │ └─┬ readable-stream@1.0.34 </tspan>
<tspan x="10" y="3530">  │   │ │ │ │   ├── isarray@0.0.1 </tspan>
<tspan x="10" y="3546">  │   │ │ │ │   └── string_decoder@0.10.31 </tspan>
<tspan x="10" y="3562">  │   │ │ │ ├─┬ to-absolute-glob@0.1.1 </tspan>
<tspan x="10" y="3578">  │   │ │ │ │ └── extend-shallow@2.0.1 </tspan>
<tspan x="10" y="3594">  │   │ │ │ └─┬ unique-stream@2.2.1 </tspan>
<tspan x="10" y="3610">  │   │ │ │   └─┬ json-stable-stringify@1.0.1 </tspan>
<tspan x="10" y="3626">  │   │ │ │     └── jsonify@0.0.0 </tspan>
<tspan x="10" y="3642">  │   │ │ ├── graceful-fs@4.1.11 </tspan>
<tspan x="10" y="3658">  │   │ │ ├─┬ gulp-sourcemaps@1.6.0 </tspan>
<tspan x="10" y="3674">  │   │ │ │ └── convert-source-map@1.5.0 </tspan>
<tspan x="10" y="3690">  │   │ │ ├── is-valid-glob@0.3.0 </tspan>
<tspan x="10" y="3706">  │   │ │ ├── lazystream@1.0.0 </tspan>
<tspan x="10" y="3722">  │   │ │ ├── lodash.isequal@4.5.0 </tspan>
<tspan x="10" y="3738">  │   │ │ ├── merge-stream@1.0.1 </tspan>
<tspan x="10" y="3754">  │   │ │ ├─┬ strip-bom@2.0.0 </tspan>
<tspan x="10" y="3770">  │   │ │ │ └── is-utf8@0.2.1 </tspan>
<tspan x="10" y="3786">  │   │ │ ├─┬ strip-bom-stream@1.0.0 </tspan>
<tspan x="10" y="3802">  │   │ │ │ └── first-chunk-stream@1.0.0 </tspan>
<tspan x="10" y="3818">  │   │ │ ├── through2-filter@2.0.0 </tspan>
<tspan x="10" y="3834">  │   │ │ └── vali-date@1.0.0 </tspan>
<tspan x="10" y="3850">  │   │ └─┬ ware@1.3.0 </tspan>
<tspan x="10" y="3866">  │   │   └─┬ wrap-fn@0.1.5 </tspan>
<tspan x="10" y="3882">  │   │     └── co@3.1.0 </tspan>
<tspan x="10" y="3898">  │   ├─┬ findup-sync@0.2.1 </tspan>
<tspan x="10" y="3914">  │   │ └─┬ glob@4.3.5 </tspan>
<tspan x="10" y="3930">  │   │   └── minimatch@2.0.10 </tspan>
<tspan x="10" y="3946">  │   ├── glob@5.0.15 </tspan>
<tspan x="10" y="3962">  │   ├─┬ inquirer@0.8.5 </tspan>
<tspan x="10" y="3978">  │   │ ├── ansi-regex@1.1.1 </tspan>
<tspan x="10" y="3994">  │   │ ├── cli-width@1.1.1 </tspan>
<tspan x="10" y="4010">  │   │ ├── figures@1.7.0 </tspan>
<tspan x="10" y="4026">  │   │ ├── lodash@3.10.1 </tspan>
<tspan x="10" y="4042">  │   │ ├─┬ readline2@0.1.1 </tspan>
<tspan x="10" y="4058">  │   │ │ ├── mute-stream@0.0.4 </tspan>
<tspan x="10" y="4074">  │   │ │ └─┬ strip-ansi@2.0.1 </tspan>
<tspan x="10" y="4090">  │   │ │   └── ansi-regex@1.1.1 </tspan>
<tspan x="10" y="4106">  │   │ ├── rx@2.5.3 </tspan>
<tspan x="10" y="4122">  │   │ └── through@2.3.8 </tspan>
<tspan x="10" y="4138">  │   ├── istextorbinary@1.0.2 </tspan>
<tspan x="10" y="4154">  │   ├── lodash@3.10.1 </tspan>
<tspan x="10" y="4170">  │   ├── mime@1.3.4 </tspan>
<tspan x="10" y="4186">  │   ├── path-exists@1.0.0 </tspan>
<tspan x="10" y="4202">  │   ├── pretty-bytes@2.0.1 </tspan>
<tspan x="10" y="4218">  │   ├── run-async@0.1.0 </tspan>
<tspan x="10" y="4234">  │   ├── shelljs@0.5.3 </tspan>
<tspan x="10" y="4250">  │   ├─┬ sinon@1.17.7 </tspan>
<tspan x="10" y="4266">  │   │ ├── formatio@1.1.1 </tspan>
<tspan x="10" y="4282">  │   │ ├── lolex@1.3.2 </tspan>
<tspan x="10" y="4298">  │   │ ├── samsam@1.1.2 </tspan>
<tspan x="10" y="4314">  │   │ └─┬ util@0.10.3 </tspan>
<tspan x="10" y="4330">  │   │   └── inherits@2.0.1 </tspan>
<tspan x="10" y="4346">  │   └── xdg-basedir@2.0.0 </tspan>
<tspan x="10" y="4362">  ├─┬ generator-mocha@0.3.1 </tspan>
<tspan x="10" y="4378">  │ └─┬ yeoman-generator@0.22.6 </tspan>
<tspan x="10" y="4394">  │   ├── glob@6.0.4 </tspan>
<tspan x="10" y="4410">  │   ├─┬ inquirer@0.11.4 </tspan>
<tspan x="10" y="4426">  │   │ ├── ansi-escapes@1.4.0 </tspan>
<tspan x="10" y="4442">  │   │ ├── ansi-regex@2.1.1 </tspan>
<tspan x="10" y="4458">  │   │ ├─┬ cli-cursor@1.0.2 </tspan>
<tspan x="10" y="4474">  │   │ │ └─┬ restore-cursor@1.0.1 </tspan>
<tspan x="10" y="4490">  │   │ │   └── exit-hook@1.1.1 </tspan>
<tspan x="10" y="4506">  │   │ ├─┬ readline2@1.0.1 </tspan>
<tspan x="10" y="4522">  │   │ │ ├── code-point-at@1.1.0 </tspan>
<tspan x="10" y="4538">  │   │ │ ├── is-fullwidth-code-point@1.0.0 </tspan>
<tspan x="10" y="4554">  │   │ │ └── mute-stream@0.0.5 </tspan>
<tspan x="10" y="4570">  │   │ ├── run-async@0.1.0 </tspan>
<tspan x="10" y="4586">  │   │ ├── rx-lite@3.1.2 </tspan>
<tspan x="10" y="4602">  │   │ └── string-width@1.0.2 </tspan>
<tspan x="10" y="4618">  │   ├── lodash@3.10.1 </tspan>
<tspan x="10" y="4634">  │   └── run-async@2.3.0 </tspan>
<tspan x="10" y="4650">  ├── headerize@0.1.1 </tspan>
<tspan x="10" y="4666">  ├─┬ mkdirp@0.5.1 </tspan>
<tspan x="10" y="4682">  │ └── minimist@0.0.8 </tspan>
<tspan x="10" y="4698">  ├─┬ underscore.string@3.3.4 </tspan>
<tspan x="10" y="4714">  │ ├── sprintf-js@1.0.3 </tspan>
<tspan x="10" y="4730">  │ └── util-deprecate@1.0.2 </tspan>
<tspan x="10" y="4746">  └─┬ yeoman-generator@0.24.1 </tspan>
<tspan x="10" y="4762">    ├── async@2.3.0 </tspan>
<tspan x="10" y="4778">    ├─┬ chalk@1.1.3 </tspan>
<tspan x="10" y="4794">    │ ├── ansi-styles@2.2.1 </tspan>
<tspan x="10" y="4810">    │ ├── escape-string-regexp@1.0.5 </tspan>
<tspan x="10" y="4826">    │ ├── has-ansi@2.0.0 </tspan>
<tspan x="10" y="4842">    │ ├── strip-ansi@3.0.1 </tspan>
<tspan x="10" y="4858">    │ └── supports-color@2.0.0 </tspan>
<tspan x="10" y="4874">    ├─┬ class-extend@0.1.2 </tspan>
<tspan x="10" y="4890">    │ └── object-assign@2.1.1 </tspan>
<tspan x="10" y="4906">    ├─┬ cli-table@0.3.1 </tspan>
<tspan x="10" y="4922">    │ └── colors@1.0.3 </tspan>
<tspan x="10" y="4938">    ├─┬ cross-spawn@4.0.2 </tspan>
<tspan x="10" y="4954">    │ ├─┬ lru-cache@4.0.2 </tspan>
<tspan x="10" y="4970">    │ │ ├── pseudomap@1.0.2 </tspan>
<tspan x="10" y="4986">    │ │ └── yallist@2.1.2 </tspan>
<tspan x="10" y="5002">    │ └─┬ which@1.2.14 </tspan>
<tspan x="10" y="5018">    │   └── isexe@2.0.0 </tspan>
<tspan x="10" y="5034">    ├─┬ dargs@4.1.0 </tspan>
<tspan x="10" y="5050">    │ └── number-is-nan@1.0.1 </tspan>
<tspan x="10" y="5066">    ├─┬ dateformat@1.0.12 </tspan>
<tspan x="10" y="5082">    │ └── get-stdin@4.0.1 </tspan>
<tspan x="10" y="5098">    ├─┬ debug@2.6.4 </tspan>
<tspan x="10" y="5114">    │ └── ms@0.7.3 </tspan>
<tspan x="10" y="5130">    ├── detect-conflict@1.0.1 </tspan>
<tspan x="10" y="5146">    ├─┬ error@7.0.2 </tspan>
<tspan x="10" y="5162">    │ ├── string-template@0.2.1 </tspan>
<tspan x="10" y="5178">    │ └── xtend@4.0.1 </tspan>
<tspan x="10" y="5194">    ├─┬ find-up@1.1.2 </tspan>
<tspan x="10" y="5210">    │ └─┬ pinkie-promise@2.0.1 </tspan>
<tspan x="10" y="5226">    │   └── pinkie@2.0.4 </tspan>
<tspan x="10" y="5242">    ├─┬ github-username@2.1.0 </tspan>
<tspan x="10" y="5258">    │ └── gh-got@2.4.0 </tspan>
<tspan x="10" y="5274">    ├─┬ glob@7.1.1 </tspan>
<tspan x="10" y="5290">    │ ├── fs.realpath@1.0.0 </tspan>
<tspan x="10" y="5306">    │ ├─┬ inflight@1.0.6 </tspan>
<tspan x="10" y="5322">    │ │ └── wrappy@1.0.2 </tspan>
<tspan x="10" y="5338">    │ ├── inherits@2.0.3 </tspan>
<tspan x="10" y="5354">    │ ├─┬ minimatch@3.0.3 </tspan>
<tspan x="10" y="5370">    │ │ └─┬ brace-expansion@1.1.7 </tspan>
<tspan x="10" y="5386">    │ │   ├── balanced-match@0.4.2 </tspan>
<tspan x="10" y="5402">    │ │   └── concat-map@0.0.1 </tspan>
<tspan x="10" y="5418">    │ └── once@1.4.0 </tspan>
<tspan x="10" y="5434">    ├─┬ gruntfile-editor@1.2.1 </tspan>
<tspan x="10" y="5450">    │ └─┬ ast-query@2.0.0 </tspan>
<tspan x="10" y="5466">    │   ├─┬ acorn-jsx@3.0.1 </tspan>
<tspan x="10" y="5482">    │   │ └── acorn@3.3.0 </tspan>
<tspan x="10" y="5498">    │   ├─┬ escodegen-wallaby@1.6.11 </tspan>
<tspan x="10" y="5514">    │   │ ├── esprima@2.7.3 </tspan>
<tspan x="10" y="5530">    │   │ ├── estraverse@1.9.3 </tspan>
<tspan x="10" y="5546">    │   │ ├── esutils@2.0.2 </tspan>
<tspan x="10" y="5562">    │   │ ├─┬ optionator@0.8.2 </tspan>
<tspan x="10" y="5578">    │   │ │ ├── deep-is@0.1.3 </tspan>
<tspan x="10" y="5594">    │   │ │ ├── fast-levenshtein@2.0.6 </tspan>
<tspan x="10" y="5610">    │   │ │ ├── levn@0.3.0 </tspan>
<tspan x="10" y="5626">    │   │ │ ├── prelude-ls@1.1.2 </tspan>
<tspan x="10" y="5642">    │   │ │ ├── type-check@0.3.2 </tspan>
<tspan x="10" y="5658">    │   │ │ └── wordwrap@1.0.0 </tspan>
<tspan x="10" y="5674">    │   │ └─┬ source-map@0.2.0 </tspan>
<tspan x="10" y="5690">    │   │   └── amdefine@1.0.1 </tspan>
<tspan x="10" y="5706">    │   └── traverse@0.6.6 </tspan>
<tspan x="10" y="5722">    ├─┬ html-wiring@1.2.0 </tspan>
<tspan x="10" y="5738">    │ ├─┬ cheerio@0.19.0 </tspan>
<tspan x="10" y="5754">    │ │ ├─┬ css-select@1.0.0 </tspan>
<tspan x="10" y="5770">    │ │ │ ├── boolbase@1.0.0 </tspan>
<tspan x="10" y="5786">    │ │ │ ├── css-what@1.0.0 </tspan>
<tspan x="10" y="5802">    │ │ │ ├── domutils@1.4.3 </tspan>
<tspan x="10" y="5818">    │ │ │ └── nth-check@1.0.1 </tspan>
<tspan x="10" y="5834">    │ │ ├─┬ dom-serializer@0.1.0 </tspan>
<tspan x="10" y="5850">    │ │ │ └── domelementtype@1.1.3 </tspan>
<tspan x="10" y="5866">    │ │ ├── entities@1.1.1 </tspan>
<tspan x="10" y="5882">    │ │ ├─┬ htmlparser2@3.8.3 </tspan>
<tspan x="10" y="5898">    │ │ │ ├── domelementtype@1.3.0 </tspan>
<tspan x="10" y="5914">    │ │ │ ├── domhandler@2.3.0 </tspan>
<tspan x="10" y="5930">    │ │ │ ├── domutils@1.5.1 </tspan>
<tspan x="10" y="5946">    │ │ │ ├── entities@1.0.0 </tspan>
<tspan x="10" y="5962">    │ │ │ └─┬ readable-stream@1.1.14 </tspan>
<tspan x="10" y="5978">    │ │ │   ├── isarray@0.0.1 </tspan>
<tspan x="10" y="5994">    │ │ │   └── string_decoder@0.10.31 </tspan>
<tspan x="10" y="6010">    │ │ └── lodash@3.10.1 </tspan>
<tspan x="10" y="6026">    │ └── detect-newline@1.0.3 </tspan>
<tspan x="10" y="6042">    ├─┬ istextorbinary@2.1.0 </tspan>
<tspan x="10" y="6058">    │ ├── binaryextensions@1.0.1 </tspan>
<tspan x="10" y="6074">    │ ├── editions@1.3.3 </tspan>
<tspan x="10" y="6090">    │ └── textextensions@1.0.2 </tspan>
<tspan x="10" y="6106">    ├─┬ mem-fs-editor@2.3.0 </tspan>
<tspan x="10" y="6122">    │ ├── commondir@1.0.1 </tspan>
<tspan x="10" y="6138">    │ ├── deep-extend@0.4.1 </tspan>
<tspan x="10" y="6154">    │ ├── ejs@2.5.6 </tspan>
<tspan x="10" y="6170">    │ ├── glob@7.1.1 </tspan>
<tspan x="10" y="6186">    │ ├─┬ globby@4.1.0 </tspan>
<tspan x="10" y="6202">    │ │ ├─┬ array-union@1.0.2 </tspan>
<tspan x="10" y="6218">    │ │ │ └── array-uniq@1.0.3 </tspan>
<tspan x="10" y="6234">    │ │ ├── arrify@1.0.1 </tspan>
<tspan x="10" y="6250">    │ │ ├── glob@6.0.4 </tspan>
<tspan x="10" y="6266">    │ │ └── pify@2.3.0 </tspan>
<tspan x="10" y="6282">    │ ├─┬ multimatch@2.1.0 </tspan>
<tspan x="10" y="6298">    │ │ └── array-differ@1.0.0 </tspan>
<tspan x="10" y="6314">    │ └─┬ vinyl@1.2.0 </tspan>
<tspan x="10" y="6330">    │   ├── clone@1.0.2 </tspan>
<tspan x="10" y="6346">    │   ├── clone-stats@0.0.1 </tspan>
<tspan x="10" y="6362">    │   └── replace-ext@0.0.1 </tspan>
<tspan x="10" y="6378">    ├─┬ nopt@3.0.6 </tspan>
<tspan x="10" y="6394">    │ └── abbrev@1.1.0 </tspan>
<tspan x="10" y="6410">    ├── path-exists@2.1.0 </tspan>
<tspan x="10" y="6426">    ├── path-is-absolute@1.0.1 </tspan>
<tspan x="10" y="6442">    ├── pretty-bytes@3.0.1 </tspan>
<tspan x="10" y="6458">    ├── read-chunk@1.0.1 </tspan>
<tspan x="10" y="6474">    ├─┬ read-pkg-up@1.0.1 </tspan>
<tspan x="10" y="6490">    │ └─┬ read-pkg@1.1.0 </tspan>
<tspan x="10" y="6506">    │   ├── load-json-file@1.1.0 </tspan>
<tspan x="10" y="6522">    │   └── path-type@1.1.0 </tspan>
<tspan x="10" y="6538">    ├─┬ rimraf@2.6.1 </tspan>
<tspan x="10" y="6554">    │ └── glob@7.1.1 </tspan>
<tspan x="10" y="6570">    ├─┬ run-async@2.3.0 </tspan>
<tspan x="10" y="6586">    │ └── is-promise@2.1.0 </tspan>
<tspan x="10" y="6602">    ├─┬ shelljs@0.7.7 </tspan>
<tspan x="10" y="6618">    │ ├── interpret@1.0.3 </tspan>
<tspan x="10" y="6634">    │ └─┬ rechoir@0.6.2 </tspan>
<tspan x="10" y="6650">    │   └─┬ resolve@1.3.3 </tspan>
<tspan x="10" y="6666">    │     └── path-parse@1.0.5 </tspan>
<tspan x="10" y="6682">    ├── text-table@0.2.0 </tspan>
<tspan x="10" y="6698">    ├─┬ through2@2.0.3 </tspan>
<tspan x="10" y="6714">    │ └─┬ readable-stream@2.2.9 </tspan>
<tspan x="10" y="6730">    │   ├── buffer-shims@1.0.0 </tspan>
<tspan x="10" y="6746">    │   ├── core-util-is@1.0.2 </tspan>
<tspan x="10" y="6762">    │   ├── isarray@1.0.0 </tspan>
<tspan x="10" y="6778">    │   ├── process-nextick-args@1.0.7 </tspan>
<tspan x="10" y="6794">    │   └── string_decoder@1.0.0 </tspan>
<tspan x="10" y="6810">    ├─┬ user-home@2.0.0 </tspan>
<tspan x="10" y="6826">    │ └── os-homedir@1.0.2 </tspan>
<tspan x="10" y="6842">    ├── yeoman-assert@2.2.3 </tspan>
<tspan x="10" y="6858">    ├─┬ yeoman-environment@1.6.6 </tspan>
<tspan x="10" y="6874">    │ ├── grouped-queue@0.3.3 </tspan>
<tspan x="10" y="6890">    │ ├─┬ inquirer@1.2.3 </tspan>
<tspan x="10" y="6906">    │ │ ├── cli-width@2.1.0 </tspan>
<tspan x="10" y="6922">    │ │ ├─┬ external-editor@1.1.1 </tspan>
<tspan x="10" y="6938">    │ │ │ ├── extend@3.0.0 </tspan>
<tspan x="10" y="6954">    │ │ │ └─┬ tmp@0.0.29 </tspan>
<tspan x="10" y="6970">    │ │ │   └── os-tmpdir@1.0.2 </tspan>
<tspan x="10" y="6986">    │ │ ├── mute-stream@0.0.6 </tspan>
<tspan x="10" y="7002">    │ │ ├── run-async@2.3.0 </tspan>
<tspan x="10" y="7018">    │ │ └── rx@4.1.0 </tspan>
<tspan x="10" y="7034">    │ ├── log-symbols@1.0.2 </tspan>
<tspan x="10" y="7050">    │ ├─┬ mem-fs@1.1.3 </tspan>
<tspan x="10" y="7066">    │ │ └─┬ vinyl-file@2.0.0 </tspan>
<tspan x="10" y="7082">    │ │   └─┬ strip-bom-stream@2.0.0 </tspan>
<tspan x="10" y="7098">    │ │     └── first-chunk-stream@2.0.0 </tspan>
<tspan x="10" y="7114">    │ └── untildify@2.1.0 </tspan>
<tspan x="10" y="7130">    ├─┬ yeoman-test@1.6.0 </tspan>
<tspan x="10" y="7146">    │ └─┬ inquirer@1.2.3 </tspan>
<tspan x="10" y="7162">    │   ├── cli-width@2.1.0 </tspan>
<tspan x="10" y="7178">    │   ├── mute-stream@0.0.6 </tspan>
<tspan x="10" y="7194">    │   ├── run-async@2.3.0 </tspan>
<tspan x="10" y="7210">    │   └── rx@4.1.0 </tspan>
<tspan x="10" y="7226">    └── yeoman-welcome@1.0.1</tspan>
</text>
</svg>
